<svg width="17" height="15" viewBox="0 0 17 15" fill="none" xmlns="http://www.w3.org/2000/svg">
<path d="M5.8057 11.782C4.91703 11.782 4.19666 12.5024 4.19666 13.391C4.19666 14.2797 4.91707 15.0001 5.8057 15.0001C6.69437 15.0001 7.41475 14.2797 7.41475 13.391C7.41478 12.5024 6.69437 11.782 5.8057 11.782ZM5.8057 14.285C5.312 14.285 4.9118 13.8848 4.9118 13.3911C4.9118 12.8974 5.312 12.4972 5.8057 12.4972C6.2994 12.4972 6.69961 12.8974 6.69961 13.3911C6.69964 13.8848 6.2994 14.285 5.8057 14.285Z" fill="#2C2A2B"/>
<path d="M12.5998 11.782C11.7112 11.782 10.9908 12.5024 10.9908 13.391C10.9908 14.2797 11.7112 15.0001 12.5998 15.0001C13.4885 15.0001 14.2089 14.2797 14.2089 13.391C14.2089 12.5024 13.4885 11.782 12.5998 11.782ZM12.5998 14.285C12.1061 14.285 11.7059 13.8848 11.7059 13.3911C11.7059 12.8974 12.1061 12.4972 12.5998 12.4972C13.0935 12.4972 13.4937 12.8974 13.4937 13.3911C13.4938 13.8848 13.0935 14.285 12.5998 14.285Z" fill="#2C2A2B"/>
<path d="M16.2288 2.39574C16.1543 2.3144 16.0525 2.26348 15.9428 2.2527L4.30389 2.0918L3.98208 1.10847C3.75537 0.451129 3.13981 0.0073574 2.44452 0H1.24667C1.04918 0 0.889099 0.160083 0.889099 0.35757C0.889099 0.555056 1.04918 0.71514 1.24667 0.71514H2.44452C2.8333 0.723729 3.17564 0.973367 3.3027 1.3409L5.57327 8.18834L5.3945 8.59954C5.1951 9.11373 5.25498 9.69247 5.5554 10.155C5.85295 10.6092 6.35353 10.8895 6.8963 10.9059H13.851C14.0485 10.9059 14.2086 10.7458 14.2086 10.5483C14.2086 10.3508 14.0485 10.1907 13.851 10.1907H6.89627C6.58975 10.1831 6.30761 10.0218 6.14537 9.76163C5.98494 9.50464 5.95199 9.18803 6.05598 8.90345L6.19902 8.58164L13.7259 7.79498C14.5526 7.70392 15.2327 7.1026 15.4243 6.29318L16.2825 2.69962C16.3212 2.59614 16.3006 2.47975 16.2288 2.39574ZM14.727 6.13231C14.611 6.65335 14.1686 7.03768 13.6365 7.07987L6.19902 7.84864L4.53632 2.80693L15.4958 2.96784L14.727 6.13231Z" fill="#2C2A2B"/>
</svg>
