<svg width="12" height="10" viewBox="0 0 12 10" fill="none" xmlns="http://www.w3.org/2000/svg">
<path d="M2.93762 3.31507H0.659491V9.98655H2.93762V3.31507Z" fill="#ECECEC"/>
<path d="M2.55462 0.201635C2.3375 0.0701661 2.08234 3.99915e-06 1.82133 1.70346e-10C1.64718 -2.66581e-06 1.47474 0.0312427 1.31393 0.0919395C1.15312 0.152636 1.00713 0.241586 0.88433 0.353675C0.761535 0.465763 0.664367 0.598778 0.598413 0.74507C0.532459 0.891361 0.499021 1.04804 0.500022 1.2061C0.501522 1.44299 0.580289 1.67416 0.726386 1.87046C0.872482 2.06677 1.07936 2.2194 1.32093 2.30911C1.5625 2.39882 1.82793 2.42158 2.08373 2.37454C2.33954 2.32749 2.57426 2.21274 2.75829 2.04475C2.94232 1.87677 3.06741 1.66308 3.11779 1.43064C3.16816 1.19821 3.14155 0.957443 3.04132 0.738716C2.9411 0.51999 2.77174 0.333104 2.55462 0.201635Z" fill="#ECECEC"/>
<path d="M6.59444 3.31473H4.39984L4.39225 10H6.67037V6.69872C6.67037 5.83032 6.85262 4.98949 8.03725 4.98949C9.22187 4.98949 9.22188 5.98884 9.22188 6.76074V9.98622H11.5V6.32655C11.5 4.52773 11.0368 3.14932 8.75866 3.14932C8.32446 3.1339 7.8938 3.22577 7.51264 3.41512C7.13148 3.60448 6.81412 3.88422 6.59444 4.22448V3.31473Z" fill="#ECECEC"/>
</svg>
