<svg width="68" height="20" viewBox="0 0 68 20" fill="none" xmlns="http://www.w3.org/2000/svg">
<path d="M10.7383 2.24023C10.2891 2.25977 9.96354 2.31185 9.76172 2.39648C9.5599 2.48112 9.42318 2.63737 9.35156 2.86523C9.27995 3.0931 9.24414 3.45768 9.24414 3.95898V11.2832V12.4746C9.24414 13.3665 9.22135 14.1413 9.17578 14.7988C9.13672 15.4564 9.04557 16.0228 8.90234 16.498C8.72005 17.123 8.39779 17.6797 7.93555 18.168C7.47982 18.6628 6.90039 19.0501 6.19727 19.3301C5.50065 19.6165 4.71615 19.7598 3.84375 19.7598C2.9974 19.7598 2.32357 19.6328 1.82227 19.3789C1.16471 19.0534 0.835938 18.5749 0.835938 17.9434C0.835938 17.5332 0.982422 17.2012 1.27539 16.9473C1.56836 16.6999 1.95573 16.5762 2.4375 16.5762C2.90625 16.5762 3.27734 16.6901 3.55078 16.918C3.82422 17.1523 3.96094 17.4811 3.96094 17.9043C3.96094 18.2038 3.87305 18.4707 3.69727 18.7051C3.52148 18.9395 3.26758 19.112 2.93555 19.2227C3.06576 19.3138 3.30664 19.3594 3.6582 19.3594C4.14648 19.3594 4.56641 19.2292 4.91797 18.9688C5.26953 18.7083 5.52344 18.36 5.67969 17.9238C5.79688 17.5788 5.88151 17.2142 5.93359 16.8301C5.99219 16.446 6.02799 15.9902 6.04102 15.4629C6.05404 14.9355 6.06055 14.1478 6.06055 13.0996V3.95898C6.06055 3.45768 6.02148 3.0931 5.94336 2.86523C5.87174 2.63737 5.73177 2.48112 5.52344 2.39648C5.32161 2.31185 4.99935 2.25977 4.55664 2.24023V1.83984C5.2207 1.87891 6.23633 1.89844 7.60352 1.89844C8.95117 1.89844 9.99609 1.87891 10.7383 1.83984V2.24023ZM12.2812 11.4199V9.75977H19.498V11.4199H12.2812ZM22.3496 10.7363C22.4342 12.2272 22.763 13.4382 23.3359 14.3691C23.9154 15.2936 24.8008 15.7559 25.9922 15.7559C26.4609 15.7559 26.8809 15.6745 27.252 15.5117C27.6296 15.3424 27.9258 15.0885 28.1406 14.75C28.362 14.4115 28.4727 14.0013 28.4727 13.5195C28.4727 12.9987 28.349 12.5332 28.1016 12.123C27.8607 11.7064 27.5319 11.3288 27.1152 10.9902C26.7051 10.6452 26.1549 10.248 25.4648 9.79883C24.6576 9.27799 24.0163 8.82552 23.541 8.44141C23.0723 8.05729 22.6816 7.60156 22.3691 7.07422C22.0632 6.54688 21.9102 5.9349 21.9102 5.23828C21.9102 4.43099 22.1152 3.75391 22.5254 3.20703C22.9355 2.65365 23.4792 2.24349 24.1562 1.97656C24.8333 1.70964 25.5788 1.57617 26.3926 1.57617C26.8743 1.57617 27.291 1.61198 27.6426 1.68359C28.0007 1.75521 28.2969 1.84635 28.5312 1.95703C28.7721 2.0612 29.0326 2.19466 29.3125 2.35742C29.6315 2.54622 29.8561 2.64062 29.9863 2.64062C30.11 2.64062 30.2044 2.57227 30.2695 2.43555C30.3346 2.29232 30.3867 2.06771 30.4258 1.76172H30.8848C30.8197 2.65365 30.7871 4.17383 30.7871 6.32227H30.3281C30.2826 5.59961 30.1198 4.91276 29.8398 4.26172C29.5664 3.61068 29.179 3.08333 28.6777 2.67969C28.1829 2.26953 27.6003 2.06445 26.9297 2.06445C26.5065 2.06445 26.1257 2.14583 25.7871 2.30859C25.4551 2.47135 25.1947 2.70898 25.0059 3.02148C24.8236 3.32747 24.7324 3.68555 24.7324 4.0957C24.7324 4.75977 24.931 5.30339 25.3281 5.72656C25.7253 6.14974 26.2428 6.57943 26.8809 7.01562C27.5189 7.44531 27.9486 7.73503 28.1699 7.88477C28.9512 8.4056 29.5697 8.85807 30.0254 9.24219C30.4811 9.6263 30.8522 10.0755 31.1387 10.5898C31.4251 11.1042 31.5684 11.6999 31.5684 12.377C31.5684 13.2298 31.347 13.9492 30.9043 14.5352C30.4616 15.1211 29.8659 15.5605 29.1172 15.8535C28.3685 16.14 27.5319 16.2832 26.6074 16.2832C25.8587 16.2832 25.237 16.2148 24.7422 16.0781C24.2539 15.9479 23.8014 15.7689 23.3848 15.541C23.0983 15.3522 22.8737 15.2578 22.7109 15.2578C22.5872 15.2578 22.4928 15.3294 22.4277 15.4727C22.3626 15.6094 22.3105 15.8307 22.2715 16.1367H21.8125C21.8646 15.3034 21.8906 13.5033 21.8906 10.7363H22.3496ZM36.832 7.24023C37.431 6.00326 38.5182 5.38477 40.0938 5.38477C41.1289 5.38477 41.8613 5.64193 42.291 6.15625C42.5124 6.41667 42.6751 6.7487 42.7793 7.15234C42.8835 7.55599 42.9355 8.0931 42.9355 8.76367V14.1445C42.9355 14.5156 42.9746 14.8053 43.0527 15.0137C43.1374 15.222 43.2708 15.3685 43.4531 15.4531C43.6354 15.5378 43.8893 15.5801 44.2148 15.5801V16C42.8086 15.9479 41.9264 15.9219 41.5684 15.9219C41.1126 15.9219 40.2467 15.9479 38.9707 16V15.5801C39.2376 15.5801 39.4492 15.5378 39.6055 15.4531C39.7617 15.3685 39.8757 15.222 39.9473 15.0137C40.0189 14.8053 40.0547 14.5156 40.0547 14.1445V7.92383C40.0547 7.37695 39.9635 6.96354 39.7812 6.68359C39.6055 6.40365 39.2832 6.26367 38.8145 6.26367C38.4499 6.26367 38.1146 6.36458 37.8086 6.56641C37.5091 6.76172 37.2715 7.03516 37.0957 7.38672C36.9199 7.73177 36.832 8.1224 36.832 8.55859V14.1445C36.832 14.5156 36.8646 14.8053 36.9297 15.0137C37.0013 15.222 37.112 15.3685 37.2617 15.4531C37.418 15.5378 37.6328 15.5801 37.9062 15.5801V16C36.6302 15.9479 35.8066 15.9219 35.4355 15.9219C34.9733 15.9219 34.0521 15.9479 32.6719 16V15.5801C32.9909 15.5801 33.2415 15.5378 33.4238 15.4531C33.6061 15.3685 33.7396 15.222 33.8242 15.0137C33.9089 14.8053 33.9512 14.5156 33.9512 14.1445V2.75781C33.9512 2.13932 33.8535 1.69336 33.6582 1.41992C33.4694 1.13997 33.1406 1 32.6719 1V0.580078C33.0951 0.619141 33.5085 0.638672 33.9121 0.638672C35.084 0.638672 36.0573 0.544271 36.832 0.355469V7.24023ZM50.1035 5.38477C51.627 5.38477 52.8216 5.82096 53.6875 6.69336C54.5599 7.56576 54.9961 8.94922 54.9961 10.8438C54.9961 12.7318 54.5599 14.112 53.6875 14.9844C52.8216 15.8503 51.627 16.2832 50.1035 16.2832C48.5801 16.2832 47.3822 15.8503 46.5098 14.9844C45.6374 14.112 45.2012 12.7318 45.2012 10.8438C45.2012 8.95573 45.6374 7.57552 46.5098 6.70312C47.3822 5.82422 48.5801 5.38477 50.1035 5.38477ZM50.1035 5.77539C49.5306 5.77539 49.0716 6.19206 48.7266 7.02539C48.388 7.85872 48.2188 9.13151 48.2188 10.8438C48.2188 12.5495 48.388 13.8158 48.7266 14.6426C49.0716 15.4694 49.5306 15.8828 50.1035 15.8828C50.6829 15.8828 51.1387 15.4727 51.4707 14.6523C51.8092 13.8255 51.9785 12.556 51.9785 10.8438C51.9785 9.125 51.8092 7.85221 51.4707 7.02539C51.1387 6.19206 50.6829 5.77539 50.1035 5.77539ZM60.3281 7.29883C60.6081 6.67383 61.015 6.19857 61.5488 5.87305C62.0892 5.54753 62.7142 5.38477 63.4238 5.38477C64.1139 5.38477 64.7292 5.57357 65.2695 5.95117C65.8099 6.32227 66.2331 6.88216 66.5391 7.63086C66.8516 8.37305 67.0078 9.28125 67.0078 10.3555C67.0078 11.6315 66.8158 12.7155 66.4316 13.6074C66.054 14.4928 65.5169 15.1602 64.8203 15.6094C64.1302 16.0586 63.3132 16.2832 62.3691 16.2832C61.5098 16.2832 60.8294 16.0716 60.3281 15.6484V17.6406C60.3281 18.2266 60.4746 18.6335 60.7676 18.8613C61.0671 19.0892 61.5195 19.2031 62.125 19.2031V19.623C61.9297 19.6165 61.487 19.6003 60.7969 19.5742C60.1068 19.5482 59.4297 19.5352 58.7656 19.5352C58.2578 19.5352 57.7402 19.5482 57.2129 19.5742C56.6921 19.6003 56.3698 19.6165 56.2461 19.623V19.2031C56.5456 19.2031 56.7799 19.1608 56.9492 19.0762C57.1185 18.998 57.2422 18.8581 57.3203 18.6562C57.4049 18.4609 57.4473 18.1875 57.4473 17.8359V7.83594C57.4473 7.22396 57.3496 6.77799 57.1543 6.49805C56.9655 6.2181 56.6367 6.07812 56.168 6.07812V5.6582C56.5911 5.69727 57.0046 5.7168 57.4082 5.7168C58.5736 5.7168 59.5469 5.62565 60.3281 5.44336V7.29883ZM60.3281 15.209C60.6276 15.5605 61.0475 15.7363 61.5879 15.7363C62.4408 15.7363 63.0527 15.3132 63.4238 14.4668C63.8014 13.6139 63.9902 12.377 63.9902 10.7559C63.9902 9.13477 63.8405 7.97917 63.541 7.28906C63.2415 6.59245 62.8118 6.24414 62.252 6.24414C61.7962 6.24414 61.3893 6.39714 61.0312 6.70312C60.6732 7.00911 60.4388 7.43229 60.3281 7.97266V15.209Z" fill="#2C2A2B"/>
</svg>
