<svg width="12" height="13" viewBox="0 0 12 13" fill="none" xmlns="http://www.w3.org/2000/svg">
<path d="M5.46513 11.4281C6.78528 11.4281 7.9978 10.9558 8.94454 10.1738L11.1411 12.3704C11.2268 12.4561 11.3388 12.5 11.4509 12.5C11.5629 12.5 11.6749 12.4561 11.7606 12.3704C11.9319 12.1991 11.9319 11.9201 11.7606 11.7488L9.57276 9.56096C10.4163 8.59885 10.9281 7.3402 10.9281 5.96513C10.9281 2.9514 8.47666 0.5 5.46293 0.5C2.4492 0.5 0 2.9492 0 5.96293C0 8.97666 2.4514 11.4281 5.46513 11.4281ZM5.46513 1.37644C7.99341 1.37644 10.0516 3.43245 10.0516 5.96293C10.0516 8.49341 7.99341 10.5494 5.46513 10.5494C2.93685 10.5494 0.878638 8.49121 0.878638 5.96293C0.878638 3.43465 2.93685 1.37644 5.46513 1.37644Z" fill="#2C2A2B"/>
</svg>
