<svg width="12" height="10" viewBox="0 0 12 10" fill="none" xmlns="http://www.w3.org/2000/svg">
<path d="M11.4092 1.50421C11.0117 1.68942 10.5082 1.86326 10.057 1.92105C10.5158 1.63495 11.2438 1.03905 11.4092 0.5C10.9806 0.764789 10.2053 1.04758 9.69952 1.14989C9.29564 0.699895 8.71958 0.5 8.0813 0.5C6.85524 0.5 6.00016 1.59184 6.00016 2.86842V3.81579C4.19713 3.81579 2.43917 2.37247 1.34518 0.973684C1.14737 1.32624 1.04352 1.72825 1.04453 2.13753C1.04453 2.99916 1.79774 3.87358 2.39409 4.28947C2.03033 4.27763 1.34158 3.98584 1.04182 3.81579V3.84279C1.04182 4.964 1.79053 5.72521 2.80519 5.93742C2.61992 5.99095 2.39409 6.18421 1.52503 6.18421C1.80721 7.10079 3.22574 7.58537 4.19713 7.60526C3.43715 8.22437 2.08217 8.55263 1.04182 8.55263C0.86197 8.55263 0.764606 8.56305 0.591064 8.54174C1.57281 9.19542 2.94402 9.5 4.19713 9.5C8.27964 9.5 10.5077 6.22305 10.5077 3.16684C10.5077 3.06642 10.5046 2.73011 10.4996 2.63158C10.936 2.30853 11.1126 1.97032 11.4092 1.50421Z" fill="#ECECEC"/>
</svg>
