<svg width="167" height="164" viewBox="0 0 167 164" fill="none" xmlns="http://www.w3.org/2000/svg">
<path d="M151.72 8.12385V5.84404H157.853V0H160.262V5.84404H166.395V8.12385H160.262V14H157.853V8.12385H151.72Z" fill="#2C2A2B"/>
<path d="M151.72 29.4119V27.1321H157.853V21.2881H160.262V27.1321H166.395V29.4119H160.262V35.2881H157.853V29.4119H151.72Z" fill="#2C2A2B"/>
<path d="M151.72 50.7V48.4202H157.853V42.5762H160.262V48.4202H166.395V50.7H160.262V56.5762H157.853V50.7H151.72Z" fill="#2C2A2B"/>
<path d="M151.72 71.9881V69.7083H157.853V63.8643H160.262V69.7083H166.395V71.9881H160.262V77.8643H157.853V71.9881H151.72Z" fill="#2C2A2B"/>
<path d="M151.72 93.2762V90.9964H157.853V85.1523H160.262V90.9964H166.395V93.2762H160.262V99.1523H157.853V93.2762H151.72Z" fill="#2C2A2B"/>
<path d="M151.72 114.564V112.284H157.853V106.44H160.262V112.284H166.395V114.564H160.262V120.44H157.853V114.564H151.72Z" fill="#2C2A2B"/>
<path d="M151.72 135.852V133.573H157.853V127.729H160.262V133.573H166.395V135.852H160.262V141.729H157.853V135.852H151.72Z" fill="#2C2A2B"/>
<path d="M151.72 157.14V154.861H157.853V149.017H160.262V154.861H166.395V157.14H160.262V163.017H157.853V157.14H151.72Z" fill="#2C2A2B"/>
<path d="M130.046 8.12385V5.84404H136.179V0H138.587V5.84404H144.72V8.12385H138.587V14H136.179V8.12385H130.046Z" fill="#2C2A2B"/>
<path d="M130.046 29.4119V27.1321H136.179V21.2881H138.587V27.1321H144.72V29.4119H138.587V35.2881H136.179V29.4119H130.046Z" fill="#2C2A2B"/>
<path d="M130.046 50.7V48.4202H136.179V42.5762H138.587V48.4202H144.72V50.7H138.587V56.5762H136.179V50.7H130.046Z" fill="#2C2A2B"/>
<path d="M130.046 71.9881V69.7083H136.179V63.8643H138.587V69.7083H144.72V71.9881H138.587V77.8643H136.179V71.9881H130.046Z" fill="#2C2A2B"/>
<path d="M130.046 93.2762V90.9964H136.179V85.1523H138.587V90.9964H144.72V93.2762H138.587V99.1523H136.179V93.2762H130.046Z" fill="#2C2A2B"/>
<path d="M130.046 114.564V112.284H136.179V106.44H138.587V112.284H144.72V114.564H138.587V120.44H136.179V114.564H130.046Z" fill="#2C2A2B"/>
<path d="M130.046 135.852V133.573H136.179V127.729H138.587V133.573H144.72V135.852H138.587V141.729H136.179V135.852H130.046Z" fill="#2C2A2B"/>
<path d="M130.046 157.14V154.861H136.179V149.017H138.587V154.861H144.72V157.14H138.587V163.017H136.179V157.14H130.046Z" fill="#2C2A2B"/>
<path d="M108.372 8.12385V5.84404H114.505V0H116.913V5.84404H123.046V8.12385H116.913V14H114.505V8.12385H108.372Z" fill="#2C2A2B"/>
<path d="M108.372 29.4119V27.1321H114.505V21.2881H116.913V27.1321H123.046V29.4119H116.913V35.2881H114.505V29.4119H108.372Z" fill="#2C2A2B"/>
<path d="M108.372 50.7V48.4202H114.505V42.5762H116.913V48.4202H123.046V50.7H116.913V56.5762H114.505V50.7H108.372Z" fill="#2C2A2B"/>
<path d="M108.372 71.9881V69.7083H114.505V63.8643H116.913V69.7083H123.046V71.9881H116.913V77.8643H114.505V71.9881H108.372Z" fill="#2C2A2B"/>
<path d="M108.372 93.2762V90.9964H114.505V85.1523H116.913V90.9964H123.046V93.2762H116.913V99.1523H114.505V93.2762H108.372Z" fill="#2C2A2B"/>
<path d="M108.372 114.564V112.284H114.505V106.44H116.913V112.284H123.046V114.564H116.913V120.44H114.505V114.564H108.372Z" fill="#2C2A2B"/>
<path d="M108.372 135.852V133.573H114.505V127.729H116.913V133.573H123.046V135.852H116.913V141.729H114.505V135.852H108.372Z" fill="#2C2A2B"/>
<path d="M108.372 157.14V154.861H114.505V149.017H116.913V154.861H123.046V157.14H116.913V163.017H114.505V157.14H108.372Z" fill="#2C2A2B"/>
<path d="M86.6973 8.12385V5.84404H92.8303V0H95.2386V5.84404H101.372V8.12385H95.2386V14H92.8303V8.12385H86.6973Z" fill="#2C2A2B"/>
<path d="M86.6973 29.4119V27.1321H92.8303V21.2881H95.2386V27.1321H101.372V29.4119H95.2386V35.2881H92.8303V29.4119H86.6973Z" fill="#2C2A2B"/>
<path d="M86.6973 50.7V48.4202H92.8303V42.5762H95.2386V48.4202H101.372V50.7H95.2386V56.5762H92.8303V50.7H86.6973Z" fill="#2C2A2B"/>
<path d="M86.6973 71.9881V69.7083H92.8303V63.8643H95.2386V69.7083H101.372V71.9881H95.2386V77.8643H92.8303V71.9881H86.6973Z" fill="#2C2A2B"/>
<path d="M86.6973 93.2762V90.9964H92.8303V85.1523H95.2386V90.9964H101.372V93.2762H95.2386V99.1523H92.8303V93.2762H86.6973Z" fill="#2C2A2B"/>
<path d="M86.6973 114.564V112.284H92.8303V106.44H95.2386V112.284H101.372V114.564H95.2386V120.44H92.8303V114.564H86.6973Z" fill="#2C2A2B"/>
<path d="M86.6973 135.852V133.573H92.8303V127.729H95.2386V133.573H101.372V135.852H95.2386V141.729H92.8303V135.852H86.6973Z" fill="#2C2A2B"/>
<path d="M86.6973 157.14V154.861H92.8303V149.017H95.2386V154.861H101.372V157.14H95.2386V163.017H92.8303V157.14H86.6973Z" fill="#2C2A2B"/>
<path d="M65.0229 8.12385V5.84404H71.156V0H73.5642V5.84404H79.6973V8.12385H73.5642V14H71.156V8.12385H65.0229Z" fill="#2C2A2B"/>
<path d="M65.0229 29.4119V27.1321H71.156V21.2881H73.5642V27.1321H79.6973V29.4119H73.5642V35.2881H71.156V29.4119H65.0229Z" fill="#2C2A2B"/>
<path d="M65.0229 50.7V48.4202H71.156V42.5762H73.5642V48.4202H79.6973V50.7H73.5642V56.5762H71.156V50.7H65.0229Z" fill="#2C2A2B"/>
<path d="M65.0229 71.9881V69.7083H71.156V63.8643H73.5642V69.7083H79.6973V71.9881H73.5642V77.8643H71.156V71.9881H65.0229Z" fill="#2C2A2B"/>
<path d="M65.0229 93.2762V90.9964H71.156V85.1523H73.5642V90.9964H79.6973V93.2762H73.5642V99.1523H71.156V93.2762H65.0229Z" fill="#2C2A2B"/>
<path d="M65.0229 114.564V112.284H71.156V106.44H73.5642V112.284H79.6973V114.564H73.5642V120.44H71.156V114.564H65.0229Z" fill="#2C2A2B"/>
<path d="M65.0229 135.852V133.573H71.156V127.729H73.5642V133.573H79.6973V135.852H73.5642V141.729H71.156V135.852H65.0229Z" fill="#2C2A2B"/>
<path d="M65.0229 157.14V154.861H71.156V149.017H73.5642V154.861H79.6973V157.14H73.5642V163.017H71.156V157.14H65.0229Z" fill="#2C2A2B"/>
<path d="M43.3486 8.12385V5.84404H49.4817V0H51.8899V5.84404H58.0229V8.12385H51.8899V14H49.4817V8.12385H43.3486Z" fill="#2C2A2B"/>
<path d="M43.3486 29.4119V27.1321H49.4817V21.2881H51.8899V27.1321H58.0229V29.4119H51.8899V35.2881H49.4817V29.4119H43.3486Z" fill="#2C2A2B"/>
<path d="M43.3486 50.7V48.4202H49.4817V42.5762H51.8899V48.4202H58.0229V50.7H51.8899V56.5762H49.4817V50.7H43.3486Z" fill="#2C2A2B"/>
<path d="M43.3486 71.9881V69.7083H49.4817V63.8643H51.8899V69.7083H58.0229V71.9881H51.8899V77.8643H49.4817V71.9881H43.3486Z" fill="#2C2A2B"/>
<path d="M43.3486 93.2762V90.9964H49.4817V85.1523H51.8899V90.9964H58.0229V93.2762H51.8899V99.1523H49.4817V93.2762H43.3486Z" fill="#2C2A2B"/>
<path d="M43.3486 114.564V112.284H49.4817V106.44H51.8899V112.284H58.0229V114.564H51.8899V120.44H49.4817V114.564H43.3486Z" fill="#2C2A2B"/>
<path d="M43.3486 135.852V133.573H49.4817V127.729H51.8899V133.573H58.0229V135.852H51.8899V141.729H49.4817V135.852H43.3486Z" fill="#2C2A2B"/>
<path d="M43.3486 157.14V154.861H49.4817V149.017H51.8899V154.861H58.0229V157.14H51.8899V163.017H49.4817V157.14H43.3486Z" fill="#2C2A2B"/>
<path d="M21.6743 8.12385V5.84404H27.8073V0H30.2156V5.84404H36.3486V8.12385H30.2156V14H27.8073V8.12385H21.6743Z" fill="#2C2A2B"/>
<path d="M21.6743 29.4119V27.1321H27.8073V21.2881H30.2156V27.1321H36.3486V29.4119H30.2156V35.2881H27.8073V29.4119H21.6743Z" fill="#2C2A2B"/>
<path d="M21.6743 50.7V48.4202H27.8073V42.5762H30.2156V48.4202H36.3486V50.7H30.2156V56.5762H27.8073V50.7H21.6743Z" fill="#2C2A2B"/>
<path d="M21.6743 71.9881V69.7083H27.8073V63.8643H30.2156V69.7083H36.3486V71.9881H30.2156V77.8643H27.8073V71.9881H21.6743Z" fill="#2C2A2B"/>
<path d="M21.6743 93.2762V90.9964H27.8073V85.1523H30.2156V90.9964H36.3486V93.2762H30.2156V99.1523H27.8073V93.2762H21.6743Z" fill="#2C2A2B"/>
<path d="M21.6743 114.564V112.284H27.8073V106.44H30.2156V112.284H36.3486V114.564H30.2156V120.44H27.8073V114.564H21.6743Z" fill="#2C2A2B"/>
<path d="M21.6743 135.852V133.573H27.8073V127.729H30.2156V133.573H36.3486V135.852H30.2156V141.729H27.8073V135.852H21.6743Z" fill="#2C2A2B"/>
<path d="M21.6743 157.14V154.861H27.8073V149.017H30.2156V154.861H36.3486V157.14H30.2156V163.017H27.8073V157.14H21.6743Z" fill="#2C2A2B"/>
<path d="M0 8.12385V5.84404H6.13303V0H8.54129V5.84404H14.6743V8.12385H8.54129V14H6.13303V8.12385H0Z" fill="#2C2A2B"/>
<path d="M0 29.4119V27.1321H6.13303V21.2881H8.54129V27.1321H14.6743V29.4119H8.54129V35.2881H6.13303V29.4119H0Z" fill="#2C2A2B"/>
<path d="M0 50.7V48.4202H6.13303V42.5762H8.54129V48.4202H14.6743V50.7H8.54129V56.5762H6.13303V50.7H0Z" fill="#2C2A2B"/>
<path d="M0 71.9881V69.7083H6.13303V63.8643H8.54129V69.7083H14.6743V71.9881H8.54129V77.8643H6.13303V71.9881H0Z" fill="#2C2A2B"/>
<path d="M0 93.2762V90.9964H6.13303V85.1523H8.54129V90.9964H14.6743V93.2762H8.54129V99.1523H6.13303V93.2762H0Z" fill="#2C2A2B"/>
<path d="M0 114.564V112.284H6.13303V106.44H8.54129V112.284H14.6743V114.564H8.54129V120.44H6.13303V114.564H0Z" fill="#2C2A2B"/>
<path d="M0 135.852V133.573H6.13303V127.729H8.54129V133.573H14.6743V135.852H8.54129V141.729H6.13303V135.852H0Z" fill="#2C2A2B"/>
<path d="M0 157.14V154.861H6.13303V149.017H8.54129V154.861H14.6743V157.14H8.54129V163.017H6.13303V157.14H0Z" fill="#2C2A2B"/>
</svg>
